<svg width="140" height="123" viewBox="0 0 140 123" fill="none" xmlns="http://www.w3.org/2000/svg">
<g clip-path="url(#clip0_5_77)">
<path d="M0.0200588 108.783C0.0321975 108.834 0.0489143 108.885 0.0700318 108.933C0.0754739 108.964 0.0855822 108.995 0.100022 109.023L7.37788 121.64L7.40787 121.67C7.42801 121.703 7.45147 121.733 7.47785 121.76C7.51784 121.8 7.55782 121.83 7.59781 121.87C7.6278 121.89 7.63781 121.92 7.6678 121.93C7.67953 121.938 7.69367 121.942 7.70777 121.94C7.81632 121.996 7.93582 122.027 8.05767 122.03H131.891C132.013 122.027 132.133 121.996 132.241 121.94C132.271 121.92 132.291 121.9 132.321 121.88C132.402 121.83 132.47 121.761 132.521 121.68C132.531 121.66 132.551 121.65 132.571 121.631L139.859 109.013C139.869 109.003 139.869 108.983 139.879 108.973C139.898 108.942 139.912 108.909 139.919 108.873C139.929 108.843 139.939 108.803 139.949 108.773C139.957 108.74 139.96 108.707 139.959 108.673C139.959 108.653 139.969 108.643 139.969 108.623C139.969 108.603 139.959 108.593 139.959 108.573C139.959 108.553 139.949 108.503 139.949 108.473C139.949 108.443 139.929 108.403 139.919 108.373C139.908 108.339 139.895 108.305 139.879 108.273C139.869 108.263 139.869 108.243 139.859 108.233L77.9471 0.984526C77.9296 0.959138 77.9095 0.935678 77.8871 0.91454C77.8558 0.869946 77.8189 0.829616 77.7771 0.794564C77.6987 0.736837 77.6151 0.686625 77.5272 0.644594C77.4751 0.628882 77.4215 0.618827 77.3673 0.6146C77.3373 0.6146 77.3073 0.594604 77.2673 0.594604H62.7016C62.6816 0.594604 62.6716 0.604602 62.6516 0.604602C62.6316 0.604602 62.5816 0.6146 62.5516 0.6146L62.4416 0.644594C62.4073 0.655299 62.3739 0.66867 62.3417 0.684586C62.33 0.692538 62.3158 0.69608 62.3017 0.694584C62.2903 0.706934 62.2767 0.717098 62.2617 0.724578C62.2333 0.742122 62.2065 0.7622 62.1817 0.784566C62.1526 0.808649 62.1258 0.835429 62.1017 0.86455C62.0817 0.894544 62.0618 0.91454 62.0418 0.944534C62.0294 0.955927 62.0193 0.96948 62.0118 0.984526L0.090015 108.243C0.0755754 108.271 0.0654671 108.302 0.060025 108.333C0.0388923 108.382 0.0221751 108.432 0.0100519 108.483C0.00174567 108.533 -0.001613 108.583 4.51313e-05 108.633C0.0100422 108.683 0.0100617 108.733 0.0200588 108.783ZM76.8174 2.16429L137.829 107.843H31.2808L37.659 96.8054H117.345C117.469 96.8044 117.59 96.7699 117.695 96.7055C117.705 96.6955 117.725 96.7055 117.735 96.6955C117.761 96.678 117.784 96.6579 117.805 96.6355C117.848 96.6016 117.888 96.5648 117.925 96.5255C117.955 96.4879 117.982 96.4478 118.005 96.4055C118.035 96.3675 118.056 96.323 118.065 96.2756C118.086 96.2247 118.096 96.1704 118.095 96.1156C118.095 96.0856 118.115 96.0556 118.115 96.0156C118.115 95.9956 118.105 95.9856 118.105 95.9656C118.1 95.9148 118.09 95.8646 118.075 95.8157C118.063 95.7643 118.046 95.7141 118.025 95.6657C118.015 95.6557 118.015 95.6357 118.005 95.6257L64.0512 2.16429H76.8174ZM131.451 120.461H9.42726L62.7016 28.1791L69.0797 39.2169L29.2314 108.233C29.2235 108.245 29.2199 108.259 29.2214 108.273C29.2003 108.322 29.1836 108.372 29.1714 108.423C29.1567 108.472 29.1466 108.522 29.1415 108.573C29.1415 108.593 29.1315 108.603 29.1315 108.623C29.1315 108.643 29.1515 108.683 29.1515 108.723C29.1566 108.777 29.1666 108.831 29.1814 108.883C29.2014 108.933 29.2214 108.973 29.2414 109.013C29.2658 109.055 29.2925 109.095 29.3214 109.133C29.3614 109.173 29.4014 109.203 29.4414 109.243C29.4714 109.263 29.4814 109.293 29.5114 109.303C29.5214 109.313 29.5413 109.303 29.5513 109.313C29.6592 109.372 29.7787 109.406 29.9012 109.413H137.809L131.451 120.461ZM101.41 95.2358H38.5587L69.9894 40.7966L101.41 95.2358ZM62.7016 2.95413L115.976 95.2358H103.23L63.3914 26.2195C63.379 26.2081 63.3689 26.1946 63.3614 26.1795C63.3314 26.1395 63.2914 26.0995 63.2614 26.0595C63.2261 26.021 63.1857 25.9873 63.1414 25.9596C63.1301 25.9472 63.1165 25.937 63.1014 25.9296C63.0731 25.9151 63.0428 25.905 63.0115 25.8996C62.9631 25.8784 62.9129 25.8617 62.8615 25.8496C62.762 25.8362 62.6612 25.8362 62.5616 25.8496C62.5102 25.8617 62.46 25.8784 62.4116 25.8996C62.3803 25.905 62.35 25.9151 62.3217 25.9296C62.3103 25.9419 62.2968 25.9521 62.2817 25.9596C62.2417 25.9895 62.2017 26.0295 62.1617 26.0595C62.1204 26.0921 62.0864 26.133 62.0618 26.1795C62.0494 26.1909 62.0393 26.2045 62.0318 26.2195L8.07768 119.681L1.69956 108.643L62.7016 2.95413Z" fill="white"/>
</g>
<defs>
<clipPath id="clip0_5_77">
<rect width="139.969" height="121.438" fill="white" transform="translate(0 0.59375)"/>
</clipPath>
</defs>
</svg>
